<svg width="162" height="215" viewBox="0 0 162 215" fill="none" xmlns="http://www.w3.org/2000/svg">
<path d="M162 47.0312V194.844C162 205.976 152.934 215 141.75 215H20.25C9.06609 215 0 205.976 0 194.844V47.0312C0 35.8991 9.06609 26.875 20.25 26.875H54C54 12.056 66.112 0 81 0C95.888 0 108 12.056 108 26.875H141.75C152.934 26.875 162 35.8991 162 47.0312ZM81 16.7969C75.4081 16.7969 70.875 21.3089 70.875 26.875C70.875 32.4411 75.4081 36.9531 81 36.9531C86.5919 36.9531 91.125 32.4411 91.125 26.875C91.125 21.3089 86.5919 16.7969 81 16.7969ZM121.5 64.668V56.2695C121.5 55.6013 121.233 54.9605 120.759 54.488C120.284 54.0154 119.64 53.75 118.969 53.75H43.0312C42.3599 53.75 41.7161 54.0154 41.2414 54.488C40.7667 54.9605 40.5 55.6013 40.5 56.2695V64.668C40.5 65.3362 40.7667 65.977 41.2414 66.4495C41.7161 66.9221 42.3599 67.1875 43.0312 67.1875H118.969C119.64 67.1875 120.284 66.9221 120.759 66.4495C121.233 65.977 121.5 65.3362 121.5 64.668Z" fill="white"/>
</svg>
